<svg width="21" height="14" viewBox="0 0 21 14" fill="none" xmlns="http://www.w3.org/2000/svg">
<path d="M8.91992 10L14.1099 7L8.91992 4V10ZM20.4799 2.17C20.6099 2.64 20.6999 3.27 20.7599 4.07C20.8299 4.87 20.8599 5.56 20.8599 6.16L20.9199 7C20.9199 9.19 20.7599 10.8 20.4799 11.83C20.2299 12.73 19.6499 13.31 18.7499 13.56C18.2799 13.69 17.4199 13.78 16.0999 13.84C14.7999 13.91 13.6099 13.94 12.5099 13.94L10.9199 14C6.72992 14 4.11992 13.84 3.08992 13.56C2.18992 13.31 1.60992 12.73 1.35992 11.83C1.22992 11.36 1.13992 10.73 1.07992 9.93C1.00992 9.13 0.979922 8.44 0.979922 7.84L0.919922 7C0.919922 4.81 1.07992 3.2 1.35992 2.17C1.60992 1.27 2.18992 0.69 3.08992 0.44C3.55992 0.31 4.41992 0.22 5.73992 0.16C7.03992 0.0899998 8.22992 0.0599999 9.32992 0.0599999L10.9199 0C15.1099 0 17.7199 0.16 18.7499 0.44C19.6499 0.69 20.2299 1.27 20.4799 2.17Z" fill="#456BD9"/>
</svg>
