<svg width="50" height="57" viewBox="0 0 50 57" fill="none" xmlns="http://www.w3.org/2000/svg">
<rect x="12.6677" y="38.0312" width="24.6667" height="4.48485" fill="black"/>
<path d="M31.3749 10.0004L26.4402 15.1186C26.0656 15.4831 25.568 15.6864 25.0505 15.6864C24.5329 15.6864 24.0353 15.4831 23.6607 15.1186L18.6656 10.0004C16.8451 9.98698 15.0402 10.3436 13.3561 11.0494C11.672 11.7552 10.1425 12.7961 8.85666 14.1114L3.13647 20.1547L9.90403 27.2052L12.9655 24.0397V47H37.1354V24.0808L40.1768 27.2463L46.8637 20.1547L41.0831 14.1525C39.8146 12.8394 38.3033 11.7962 36.6368 11.0835C34.9703 10.3707 33.1818 10.0026 31.3749 10.0004Z" stroke="black" stroke-width="1.2" stroke-linecap="round" stroke-linejoin="round"/>
</svg>
