<svg width="40" height="40" viewBox="0 0 40 40" fill="none" xmlns="http://www.w3.org/2000/svg">
<path d="M17.2339 29.2506C17.0651 29.2539 16.8991 29.2069 16.7572 29.1155C16.6152 29.0242 16.5037 28.8926 16.4368 28.7376C16.3699 28.5826 16.3506 28.4112 16.3815 28.2452C16.4124 28.0793 16.492 27.9263 16.6102 27.8057C16.7284 27.6852 16.8798 27.6025 17.0451 27.5684C17.2105 27.5342 17.3822 27.55 17.5385 27.6139C17.6948 27.6777 17.8285 27.7866 17.9227 27.9267C18.0169 28.0668 18.0672 28.2318 18.0672 28.4006C18.0672 28.6232 17.98 28.8369 17.8242 28.9958C17.6683 29.1548 17.4564 29.2463 17.2339 29.2506Z" fill="white"/>
<path d="M23.3494 29.2507C23.8097 29.2507 24.1828 28.8776 24.1828 28.4173C24.1828 27.9571 23.8097 27.584 23.3494 27.584C22.8892 27.584 22.5161 27.9571 22.5161 28.4173C22.5161 28.8776 22.8892 29.2507 23.3494 29.2507Z" fill="white"/>
<path d="M23.785 35.8H16.2184C14.2558 35.8 12.3735 35.0204 10.9858 33.6326C9.598 32.2448 8.81836 30.3626 8.81836 28.4C8.81836 26.4374 9.598 24.5552 10.9858 23.1674C12.3735 21.7796 14.2558 21 16.2184 21H23.785C25.7476 21 27.6298 21.7796 29.0176 23.1674C30.4054 24.5552 31.185 26.4374 31.185 28.4C31.185 30.3626 30.4054 32.2448 29.0176 33.6326C27.6298 35.0204 25.7476 35.8 23.785 35.8ZM16.2184 22.6667C15.4654 22.6667 14.7199 22.815 14.0243 23.1031C13.3287 23.3912 12.6967 23.8135 12.1643 24.3459C11.6319 24.8783 11.2096 25.5103 10.9214 26.2059C10.6333 26.9015 10.485 27.6471 10.485 28.4C10.485 29.1529 10.6333 29.8985 10.9214 30.5941C11.2096 31.2897 11.6319 31.9217 12.1643 32.4541C12.6967 32.9865 13.3287 33.4088 14.0243 33.6969C14.7199 33.985 15.4654 34.1333 16.2184 34.1333H23.785C25.3056 34.1333 26.7639 33.5293 27.8391 32.4541C28.9143 31.3789 29.5184 29.9206 29.5184 28.4C29.5184 26.8794 28.9143 25.4211 27.8391 24.3459C26.7639 23.2707 25.3056 22.6667 23.785 22.6667H16.2184Z" fill="white"/>
<path d="M33.3341 25.1003H28.8674C28.6464 25.1003 28.4345 25.0125 28.2782 24.8563C28.1219 24.7 28.0341 24.488 28.0341 24.267C28.0341 24.046 28.1219 23.834 28.2782 23.6777C28.4345 23.5215 28.6464 23.4337 28.8674 23.4337H33.3341C34.1373 23.4293 34.9063 23.1083 35.4742 22.5404C36.0421 21.9725 36.3631 21.2035 36.3674 20.4003C36.363 16.5501 34.8327 12.8586 32.1118 10.1345C29.3908 7.41037 25.701 5.87582 21.8508 5.867H18.3341C14.481 5.87141 10.7869 7.40401 8.06237 10.1286C5.3378 12.8532 3.80519 16.5472 3.80078 20.4003C3.80516 21.2035 4.12615 21.9725 4.69406 22.5404C5.26197 23.1083 6.03097 23.4293 6.83411 23.4337H11.1341C11.3551 23.4337 11.5671 23.5215 11.7234 23.6777C11.8797 23.834 11.9674 24.046 11.9674 24.267C11.9674 24.488 11.8797 24.7 11.7234 24.8563C11.5671 25.0125 11.3551 25.1003 11.1341 25.1003H6.75078C5.50426 25.1003 4.3088 24.6052 3.42738 23.7237C2.54596 22.8423 2.05078 21.6468 2.05078 20.4003C2.05296 18.2665 2.47623 16.1541 3.29634 14.1842C4.11645 12.2142 5.31727 10.4255 6.82998 8.92057C8.34269 7.4156 10.1375 6.22397 12.1116 5.41398C14.0858 4.60399 16.2003 4.19156 18.3341 4.20033H21.8508C26.1402 4.20914 30.2513 5.91699 33.2844 8.95005C36.3175 11.9831 38.0253 16.0943 38.0341 20.3837C38.0341 21.6317 37.5395 22.8289 36.6585 23.713C35.7776 24.597 34.5822 25.0959 33.3341 25.1003Z" fill="white"/>
<path d="M5.28535 20.5503C4.37519 20.5361 3.47597 20.3495 2.63535 20.0003C2.53351 19.9598 2.44064 19.8998 2.36206 19.8234C2.28347 19.7471 2.22071 19.656 2.17736 19.5554C2.13402 19.4547 2.11094 19.3466 2.10945 19.237C2.10796 19.1275 2.12809 19.0187 2.16868 18.9169C2.2054 18.8143 2.26272 18.7202 2.33711 18.6405C2.41151 18.5608 2.50141 18.4971 2.6013 18.4534C2.7012 18.4097 2.80897 18.3869 2.918 18.3863C3.02704 18.3858 3.13503 18.4075 3.23535 18.4503C3.88991 18.7008 4.58447 18.8307 5.28535 18.8336C6.43598 18.8255 7.55413 18.4512 8.47775 17.7649C9.40136 17.0787 10.0824 16.1161 10.4223 15.0168C10.7621 13.9174 10.743 12.7385 10.3678 11.6507C9.99256 10.5629 9.28069 9.62293 8.33535 8.96692C8.18173 8.83279 8.08263 8.64698 8.05681 8.44468C8.031 8.24238 8.08026 8.03764 8.19527 7.86923C8.31029 7.70081 8.48307 7.58042 8.68089 7.53085C8.87871 7.48128 9.08784 7.50597 9.26868 7.60025C10.5242 8.44972 11.4741 9.67957 11.9787 11.109C12.4833 12.5384 12.516 14.092 12.0721 15.5415C11.6281 16.9909 10.7309 18.2596 9.51223 19.1612C8.29361 20.0628 6.8179 20.5497 5.30202 20.5503H5.28535Z" fill="white"/>
<path d="M37.1 20.5172C34.4956 20.3202 32.0612 19.1489 30.2819 17.2368C28.5027 15.3247 27.5094 12.8123 27.5 10.2005C27.4965 8.94091 27.7283 7.69172 28.1834 6.51719C28.2238 6.41535 28.2839 6.32248 28.3602 6.24389C28.4366 6.16531 28.5276 6.10255 28.6283 6.0592C28.7289 6.01586 28.8371 5.99278 28.9466 5.99129C29.0562 5.9898 29.1649 6.00993 29.2667 6.05052C29.3694 6.08724 29.4634 6.14455 29.5432 6.21895C29.6229 6.29334 29.6865 6.38325 29.7302 6.48314C29.7739 6.58303 29.7968 6.69081 29.7973 6.79984C29.7978 6.90887 29.7761 7.01686 29.7334 7.11719C29.2686 8.37364 29.1009 9.72059 29.2433 11.0526C29.3857 12.3847 29.8343 13.6658 30.5542 14.7956C31.2741 15.9254 32.2456 16.8733 33.3927 17.5652C34.5399 18.2571 35.8315 18.6742 37.1667 18.7839C37.3877 18.7839 37.5997 18.8716 37.756 19.0279C37.9122 19.1842 38 19.3962 38 19.6172C38 19.8382 37.9122 20.0502 37.756 20.2064C37.5997 20.3627 37.3877 20.4505 37.1667 20.4505L37.1 20.5172Z" fill="white"/>
</svg>
