<svg width="49" height="49" viewBox="0 0 49 49" fill="none" xmlns="http://www.w3.org/2000/svg">
<mask id="mask0_1248_11724" style="mask-type:alpha" maskUnits="userSpaceOnUse" x="0" y="0" width="49" height="49">
<path d="M41.6509 33.5312C39.4289 32.9787 37.7706 30.9757 37.7706 28.5831C37.7706 25.7639 40.0558 24.5 42.875 24.5C43.2003 24.5 43.5399 24.5422 43.8491 24.6022C43.8634 24.9088 43.8956 25.2105 43.8956 25.5206C43.8956 28.7816 43.0786 30.8311 41.6509 33.5312ZM13.1439 40.1901C14.9695 37.5813 19.3711 35.7287 24.5 35.7287C29.6281 35.7287 34.0186 37.5907 35.8444 40.1995C32.6501 42.5143 28.7376 43.8956 24.5 43.8956C20.2573 43.8956 16.3406 42.51 13.1439 40.1901ZM5.10442 24.5C5.10442 24.1866 5.13648 23.8816 5.15093 23.5723C5.46015 23.5123 5.79894 23.4786 6.125 23.4786C8.94422 23.4786 11.2294 25.7639 11.2294 28.583C11.2294 30.9756 9.56849 32.9753 7.34742 33.5278C5.92058 30.8286 5.10442 27.7594 5.10442 24.5ZM24.5 5.10356C33.4264 5.10356 40.8373 11.1728 43.0862 19.431H5.91378C8.16271 11.1729 15.5736 5.10356 24.5 5.10356ZM24.5 0C10.9692 0 0 10.9684 0 24.5C0 38.0308 10.9692 49 24.5 49C38.0308 49 49 38.0308 49 24.5C49 10.9684 38.0308 0 24.5 0Z" fill="black"/>
</mask>
<g mask="url(#mask0_1248_11724)">
<circle cx="24.5" cy="24.498" r="19.25" fill="black"/>
<path d="M32.7779 26.1293C32.7779 27.9955 29.358 29.5086 25.1389 29.5086C20.9199 29.5086 17.5 27.9955 17.5 26.1293C17.5 24.2631 20.9199 22.75 25.1389 22.75C29.358 22.75 32.7779 24.2631 32.7779 26.1293Z" fill="white"/>
</g>
<circle cx="24.5" cy="22.75" r="19.9949" stroke="black" stroke-width="2.01026"/>
</svg>
