<svg width="12" height="12" viewBox="0 0 12 12" fill="none" xmlns="http://www.w3.org/2000/svg">
<path d="M10.152 3.725H10.3693L10.26 3.53714C9.66924 2.52169 8.72752 1.73368 7.59449 1.34574L7.292 1.24217L7.44404 1.52344C7.79885 2.17984 8.07126 2.8902 8.26091 3.631L8.28497 3.725H8.382H10.152ZM6.1028 1.15289L6 1.00426L5.8972 1.15289C5.39196 1.88335 4.99616 2.69315 4.73429 3.564L4.68588 3.725H4.854H7.146H7.31412L7.26571 3.564C7.00384 2.69315 6.60804 1.88335 6.1028 1.15289ZM1.23473 7.23032L1.2584 7.325H1.356H3.384H3.52507L3.50809 7.18496C3.46036 6.79121 3.425 6.40081 3.425 6C3.425 5.59919 3.46036 5.20879 3.50809 4.81504L3.52507 4.675H3.384H1.356H1.2584L1.23473 4.76968C1.13675 5.16163 1.075 5.57393 1.075 6C1.075 6.42607 1.13675 6.83837 1.23473 7.23032ZM1.848 8.275H1.63131L1.73979 8.46258C2.3308 9.48453 3.27276 10.2664 4.40551 10.6543L4.708 10.7578L4.55596 10.4766C4.20115 9.82016 3.92874 9.1098 3.73909 8.369L3.71503 8.275H3.618H1.848ZM3.618 3.725H3.71503L3.73909 3.631C3.92874 2.8902 4.20115 2.17984 4.55596 1.52344L4.708 1.24217L4.40551 1.34574C3.27276 1.73358 2.3308 2.51547 1.73979 3.53742L1.63131 3.725H1.848H3.618ZM5.8972 10.8471L6 10.9957L6.1028 10.8471C6.60804 10.1167 7.00384 9.30685 7.26571 8.436L7.31412 8.275H7.146H4.854H4.68588L4.73429 8.436C4.99616 9.30685 5.39196 10.1167 5.8972 10.8471ZM7.404 7.325H7.51311L7.52785 7.21689C7.58214 6.81877 7.625 6.41632 7.625 6C7.625 5.58376 7.58216 5.17535 7.52782 4.78286L7.51289 4.675H7.404H4.596H4.48712L4.47218 4.78286C4.41784 5.17535 4.375 5.58376 4.375 6C4.375 6.41632 4.41786 6.81877 4.47215 7.21689L4.48689 7.325H4.596H7.404ZM7.44404 10.4766L7.292 10.7578L7.59449 10.6543C8.72752 10.2663 9.66924 9.47831 10.26 8.46286L10.3693 8.275H10.152H8.382H8.28497L8.26091 8.369C8.07126 9.1098 7.79885 9.82016 7.44404 10.4766ZM8.49191 7.18496L8.47493 7.325H8.616H10.644H10.7416L10.7653 7.23032C10.8633 6.83837 10.925 6.42607 10.925 6C10.925 5.57393 10.8633 5.16163 10.7653 4.76968L10.7416 4.675H10.644H8.616H8.47493L8.49191 4.81504C8.53964 5.20879 8.575 5.59919 8.575 6C8.575 6.40081 8.53964 6.79121 8.49191 7.18496ZM0.125 6C0.125 2.75687 2.7512 0.125 5.994 0.125C9.24305 0.125 11.875 2.75712 11.875 6C11.875 9.24288 9.24305 11.875 5.994 11.875C2.7512 11.875 0.125 9.24313 0.125 6Z" fill="#456BD9" stroke="#383734" stroke-width="0.25"/>
</svg>
