<svg width="16" height="16" viewBox="0 0 16 16" fill="none" xmlns="http://www.w3.org/2000/svg">
<path d="M15.6909 14.7638L11.777 10.8498C12.8436 9.54534 13.368 7.88082 13.2418 6.20054C13.1155 4.52026 12.3483 2.95278 11.0987 1.82233C9.84917 0.691875 8.21294 0.0849366 6.52845 0.127054C4.84396 0.169172 3.24009 0.857122 2.04861 2.04861C0.857122 3.24009 0.169172 4.84396 0.127054 6.52845C0.0849366 8.21294 0.691875 9.84917 1.82233 11.0987C2.95278 12.3483 4.52026 13.1155 6.20054 13.2418C7.88082 13.368 9.54534 12.8436 10.8498 11.777L14.7638 15.6909C14.8874 15.8104 15.0531 15.8765 15.225 15.875C15.3969 15.8735 15.5614 15.8045 15.6829 15.6829C15.8045 15.5614 15.8735 15.3969 15.875 15.225C15.8765 15.0531 15.8104 14.8874 15.6909 14.7638ZM6.7031 11.9488C5.6656 11.9488 4.6514 11.6411 3.78875 11.0647C2.9261 10.4883 2.25375 9.66906 1.85671 8.71054C1.45968 7.75201 1.3558 6.69728 1.55821 5.67972C1.76061 4.66215 2.26021 3.72746 2.99384 2.99384C3.72746 2.26021 4.66215 1.76061 5.67972 1.55821C6.69728 1.3558 7.75201 1.45968 8.71054 1.85671C9.66906 2.25375 10.4883 2.9261 11.0647 3.78875C11.6411 4.6514 11.9488 5.6656 11.9488 6.7031C11.9472 8.09386 11.3941 9.42722 10.4106 10.4106C9.42722 11.3941 8.09386 11.9472 6.7031 11.9488Z" fill="white"/>
</svg>
