<svg width="42" height="25" viewBox="0 0 42 25" fill="none" xmlns="http://www.w3.org/2000/svg">
<path d="M36.75 0.5C33.999 0.5 31.773 2.52 31.542 5.1C27.594 4.1 25.578 1.5 21 1.5C16.401 1.5 14.406 4.1 10.458 5.1C10.227 2.54 8.001 0.5 5.25 0.5C2.352 0.5 0 2.74 0 5.5V6.5C0 18.5 7.56 22.12 13.692 22.46C15.813 23.74 18.312 24.5 21 24.5C23.688 24.5 26.187 23.74 28.308 22.46C34.44 22.12 42 18.5 42 6.5V5.5C42 2.74 39.648 0.5 36.75 0.5ZM3.15 6.5V5.5C3.15 4.4 4.095 3.5 5.25 3.5C6.405 3.5 7.35 4.4 7.35 5.5V11.5C7.35 14.06 8.148 16.44 9.471 18.46C6.279 17.04 3.15 13.8 3.15 6.5ZM38.85 6.5C38.85 13.8 35.721 17.04 32.529 18.46C33.873 16.44 34.65 14.06 34.65 11.5V5.5C34.65 4.4 35.595 3.5 36.75 3.5C37.905 3.5 38.85 4.4 38.85 5.5V6.5ZM18.249 9.46C17.325 9.98 16.233 10.58 14.7 10.98V8.9C15.708 8.56 16.464 8.14 17.178 7.74C18.312 7.1 19.383 6.5 21 6.5C22.617 6.5 23.667 7.1 24.78 7.74C25.494 8.14 26.271 8.58 27.3 8.92V11C25.725 10.58 24.654 9.98 23.709 9.44C22.743 8.9 22.029 8.5 21 8.5C19.971 8.5 19.236 8.9 18.249 9.46Z" fill="black"/>
</svg>
