<svg width="12" height="18" viewBox="0 0 12 18" fill="none" xmlns="http://www.w3.org/2000/svg">
<path d="M1.92126 6.6041C2.38204 9.03041 3.61298 11.2595 5.41159 12.9571L7.53246 11.7919C7.79275 11.6489 8.11103 11.6685 8.34636 11.8342C9.10246 12.3538 9.96269 12.7659 10.8888 13.0352C11.2995 13.1547 11.5379 13.5885 11.4184 13.9993L10.6604 16.6057C10.5409 17.0165 10.1071 17.2548 9.69636 17.1354C2.68357 15.0959 -1.347 7.75963 0.692472 0.746836C0.81193 0.336076 1.24574 0.0977381 1.6565 0.217196L4.27043 0.977381C4.68119 1.09684 4.91953 1.53065 4.80007 1.94141C4.52858 2.87496 4.41731 3.8146 4.45038 4.73142C4.45651 5.0167 4.31206 5.29059 4.04213 5.43889L1.92126 6.6041Z" fill="#7E7D7B"/>
</svg>
