<svg width="20" height="40" viewBox="0 0 20 40" fill="none" xmlns="http://www.w3.org/2000/svg">
<rect x="0.6" y="3.6" width="18.8" height="35.8" rx="1.4" stroke="black" stroke-width="1.2"/>
<path d="M2 1C2 0.447715 2.44772 0 3 0H17C17.5523 0 18 0.447715 18 1V3H2V1Z" fill="black"/>
<path fill-rule="evenodd" clip-rule="evenodd" d="M15.4291 30.3629L15.4291 33.9731C15.4291 34.2963 15.1322 34.44 14.4949 34.44L13.0725 34.44L13.0725 35L14.4949 35C15.4155 35 15.9226 34.6091 15.9226 34.2361L15.9226 30.3629L15.4291 30.3629ZM13.0725 24.5358L15.4291 24.5358L15.4291 27.8361C15.4291 28.1593 15.1322 28.303 14.4949 28.303L13.0725 28.303L13.0725 28.8632L14.4949 28.8632C15.4155 28.8632 15.9226 28.4723 15.9226 28.0991L15.9226 23.9756L13.0725 23.9756L13.0725 24.5358ZM15.4291 17.6364L15.4291 21.4423C15.4291 21.7655 15.1322 21.9092 14.4949 21.9092C13.8526 21.9092 13.566 21.7655 13.566 21.4423L13.566 17.6364L13.0725 17.6364L13.0725 21.7052C13.0725 22.0784 13.5775 22.4693 14.4949 22.4693C15.4155 22.4693 15.9226 22.0784 15.9226 21.7052L15.9226 17.6364L15.4291 17.6364ZM13.0725 9.76404C13.0725 9.39108 13.5775 9 14.4949 9C15.4155 9 15.9226 9.39099 15.9226 9.76404L15.9226 13.9429L13.0725 13.9429L13.0725 9.76404ZM14.4949 9.56008C13.8526 9.56008 13.566 9.70379 13.566 10.027L13.566 13.3828L15.4289 13.3828L15.4289 10.027C15.4289 9.70379 15.1322 9.56008 14.4949 9.56008ZM16 16.0627L16 15.5174L13 15.5174L13 16.0627L16 16.0627Z" fill="black"/>
</svg>
