<svg width="40" height="40" viewBox="0 0 40 40" fill="none" xmlns="http://www.w3.org/2000/svg">
<path d="M20.3012 17.5664C20.1779 17.5645 20.0564 17.5369 19.9445 17.4852C19.8325 17.4335 19.7326 17.359 19.6512 17.2664L12.0012 8.08307C11.8676 7.93099 11.7939 7.73549 11.7939 7.53307C11.7939 7.33064 11.8676 7.13514 12.0012 6.98307L15.0012 3.84973C15.0819 3.76873 15.1781 3.70484 15.2841 3.66188C15.39 3.61892 15.5036 3.59779 15.6179 3.59973H24.8179C25.0404 3.59759 25.2553 3.68114 25.4179 3.83307L28.4179 6.84973C28.5561 7.00286 28.6326 7.2018 28.6326 7.40807C28.6326 7.61433 28.5561 7.81327 28.4179 7.9664L20.8846 17.2497C20.8149 17.3404 20.727 17.4155 20.6265 17.47C20.526 17.5246 20.4152 17.5574 20.3012 17.5664ZM13.7679 7.5664L20.2846 15.3997L26.6679 7.49973L24.4846 5.2664H15.9679L13.7679 7.5664Z" fill="white"/>
<path d="M20.2331 34.8834C17.963 34.8774 15.7454 34.1998 13.8598 32.9357C11.9742 31.6717 10.5048 29.8778 9.63689 27.7802C8.76895 25.6825 8.54127 23.3749 8.98252 21.1481C9.42377 18.9213 10.5142 16.8749 12.1165 15.2667C12.2734 15.1054 12.488 15.013 12.713 15.0098C12.9381 15.0067 13.1551 15.0931 13.3165 15.25C13.4778 15.407 13.5702 15.6215 13.5733 15.8466C13.5765 16.0716 13.4901 16.2887 13.3331 16.45C11.9603 17.823 11.0254 19.5721 10.6467 21.4763C10.268 23.3806 10.4624 25.3543 11.2054 27.1481C11.9485 28.9418 13.2067 30.4749 14.821 31.5535C16.4353 32.6322 18.3333 33.2079 20.2748 33.2079C22.2163 33.2079 24.1143 32.6322 25.7286 31.5535C27.3429 30.4749 28.6011 28.9418 29.3442 27.1481C30.0872 25.3543 30.2816 23.3806 29.9029 21.4763C29.5242 19.5721 28.5893 17.823 27.2165 16.45C27.11 16.2931 27.0603 16.1045 27.0755 15.9155C27.0908 15.7265 27.17 15.5483 27.3001 15.4104C27.4303 15.2725 27.6035 15.1831 27.7914 15.157C27.9792 15.1309 28.1703 15.1696 28.3331 15.2667C29.9364 16.8759 31.0271 18.9238 31.4679 21.1522C31.9086 23.3806 31.6795 25.6895 30.8095 27.7879C29.9395 29.8862 28.4676 31.6799 26.5794 32.9426C24.6912 34.2054 22.4713 34.8807 20.1998 34.8834H20.2331Z" fill="white"/>
</svg>
