<svg width="46" height="29" viewBox="0 0 46 29" fill="none" xmlns="http://www.w3.org/2000/svg">
<path d="M38.8358 23.6392C40.1966 23.3082 41.5941 23.0875 42.9916 22.9404L44.1317 22.8301L44.573 23.014H44.6098L44.8305 23.1611C45.3454 23.4185 45.7131 23.7495 45.8602 24.0805C46.0809 24.5218 46.0441 24.9631 45.7131 25.5148L45.6764 25.5883C45.235 26.14 44.4995 26.4342 43.7272 26.4342C43.3594 26.4342 42.9916 26.3607 42.6239 26.2136L37.4751 23.9334L38.8358 23.6392Z" fill="black"/>
<path d="M12.6873 21.9466C17.2844 22.3879 21.9551 21.9098 26.258 20.549L33.6502 18.1953L43.2122 22.4614L41.5572 22.6821C37.6221 23.2337 33.8708 24.5577 30.708 26.5804L29.3473 27.4631C27.7659 28.4928 25.8535 28.9709 23.9411 28.9709C21.808 28.9709 19.7117 28.3457 18.02 27.0953L10.8853 21.7627L12.6873 21.9466Z" fill="black"/>
<path d="M4.89182 3.96443C8.01785 1.42682 12.2104 0.0292969 16.6604 0.0292969C21.1104 0.0292969 25.3766 1.42682 28.5026 3.96443C31.6286 6.50203 33.3572 11.8715 33.3572 15.4756V17.8293L26.0018 20.183C22.8022 21.2128 19.4187 21.7277 16.0352 21.7277C13.0563 21.7277 10.0406 21.3231 7.17199 20.514L0.000488281 18.5281V15.5124C0.0372652 11.8715 1.76578 6.50203 4.89182 3.96443Z" fill="black"/>
</svg>
