<svg width="132" height="9" viewBox="0 0 132 9" fill="none" xmlns="http://www.w3.org/2000/svg">
<path fill-rule="evenodd" clip-rule="evenodd" d="M23.542 7.28718H5.21355C3.57264 7.28718 2.84301 6.39674 2.84301 4.48464V0.217411H0V4.48464C0 7.24657 1.98454 8.76777 3.87851 8.76777H23.542V7.28718ZM53.1259 0.217411V7.28718H36.3706C34.7297 7.28718 34 6.39674 34 4.48464V0.217411H31.1561V4.48464C31.1561 7.24657 33.1407 8.76777 35.0355 8.76777H55.9698V0.217411H53.1259ZM88.1537 7.28718H68.8316C67.1907 7.28718 66.4611 6.39674 66.4611 4.48464C66.4611 2.55772 67.1907 1.698 68.8316 1.698H88.1537V0.217411H67.4966C65.6022 0.217411 63.6172 1.7326 63.6172 4.48464C63.6172 7.24657 65.6017 8.76777 67.4966 8.76777H88.1537V7.28718ZM128.121 0.217411C130.015 0.217411 132 1.7326 132 4.48464C132 7.24657 130.015 8.76777 128.121 8.76777H106.905V0.217411H128.121ZM129.157 4.48464C129.157 2.55772 128.427 1.698 126.786 1.698H109.749V7.28661H126.786C128.427 7.28661 129.157 6.39674 129.157 4.48464ZM96.1433 9H98.9117V0H96.1433V9Z"/>
</svg>
